<svg xmlns="http://www.w3.org/2000/svg" width="800" height="520" viewBox="0 0 800 520">
<defs>
  <marker id="arrow" viewBox="0 0 10 10" refX="10" refY="5" markerWidth="6" markerHeight="6" orient="auto-start-reverse">
    <path d="M 0 0 L 10 5 L 0 10 z" fill="#333" />
  </marker>
</defs>
<rect width="100%" height="100%" fill="#ffffff" />
<path d="M 400 82 C 394.72 98.5, 396.04 131.5, 400 148" stroke="#333" stroke-width="2" fill="none" marker-end="url(#arrow)" />
<path d="M 540 82 C 419.32 105.8, 213.24 195.4, 120 278" stroke="#333" stroke-width="2" fill="none" marker-end="url(#arrow)" />
<path d="M 120 322 C 203.92 295.3, 340.44 213.9, 400 148" stroke="#333" stroke-width="2" fill="none" marker-end="url(#arrow)" />
<path d="M 400 322 C 413.92 278.5, 410.44 191.5, 400 148" stroke="#333" stroke-width="2" fill="none" marker-end="url(#arrow)" />
<path d="M 680 322 C 623.92 261.7, 480.44 169.1, 400 148" stroke="#333" stroke-width="2" fill="none" marker-end="url(#arrow)" />
<path d="M 120 322 C 148.92 349.4, 220.44 390.2, 260 398" stroke="#333" stroke-width="2" fill="none" marker-end="url(#arrow)" />
<path d="M 400 322 C 358.92 332.6, 290.44 367.8, 260 398" stroke="#333" stroke-width="2" fill="none" marker-end="url(#arrow)" />
<rect x="320.0" y="38.0" width="160" height="44" rx="8" ry="8" fill="#f7f7f9" stroke="#333" stroke-width="1.5" />
<text x="400" y="66" font-family="Segoe UI, Arial, sans-serif" font-size="14" text-anchor="middle" fill="#111">main.c</text>
<rect x="320.0" y="148.0" width="160" height="44" rx="8" ry="8" fill="#f7f7f9" stroke="#333" stroke-width="1.5" />
<text x="400" y="176" font-family="Segoe UI, Arial, sans-serif" font-size="14" text-anchor="middle" fill="#111">sorts.h</text>
<rect x="40.0" y="278.0" width="160" height="44" rx="8" ry="8" fill="#f7f7f9" stroke="#333" stroke-width="1.5" />
<text x="120" y="306" font-family="Segoe UI, Arial, sans-serif" font-size="14" text-anchor="middle" fill="#111">quicksort1.c</text>
<rect x="320.0" y="278.0" width="160" height="44" rx="8" ry="8" fill="#f7f7f9" stroke="#333" stroke-width="1.5" />
<text x="400" y="306" font-family="Segoe UI, Arial, sans-serif" font-size="14" text-anchor="middle" fill="#111">quicksort2.c</text>
<rect x="600.0" y="278.0" width="160" height="44" rx="8" ry="8" fill="#f7f7f9" stroke="#333" stroke-width="1.5" />
<text x="680" y="306" font-family="Segoe UI, Arial, sans-serif" font-size="14" text-anchor="middle" fill="#111">mencysort.c</text>
<rect x="180.0" y="398.0" width="160" height="44" rx="8" ry="8" fill="#f7f7f9" stroke="#333" stroke-width="1.5" />
<text x="260" y="426" font-family="Segoe UI, Arial, sans-serif" font-size="14" text-anchor="middle" fill="#111">random.c</text>
<rect x="460.0" y="38.0" width="160" height="44" rx="8" ry="8" fill="#f7f7f9" stroke="#333" stroke-width="1.5" />
<text x="540" y="66" font-family="Segoe UI, Arial, sans-serif" font-size="14" text-anchor="middle" fill="#111">run_sorts.c</text>
</svg>
